<svg version="1.1" xmlns="http://www.w3.org/2000/svg" xmlns:xlink="http://www.w3.org/1999/xlink" x="0px" y="0px" viewBox="0 0 500.002 465.188" enable-background="new 0 0 500.002 465.188" xml:space="preserve" style="fill: rgb(0, 0, 0);" role="img" aria-label="Full Circle Arrow">
<g id="__id3_sh8430v0nk">
	<path d="M267.406,465.188c-128.258,0-232.599-104.346-232.599-232.591C34.808,104.344,139.148,0,267.406,0   c128.251,0,232.597,104.344,232.597,232.595C500.002,360.842,395.656,465.188,267.406,465.188z M267.406,117.277   c-63.586,0-115.313,51.732-115.313,115.318c0,63.582,51.729,115.314,115.313,115.314c63.579,0,115.306-51.732,115.306-115.314   C382.711,169.009,330.985,117.277,267.406,117.277z" style="fill: rgb(255, 87, 87);"></path>
</g>
    <g opacity="0.6">

		<linearGradient id="__id4_sh8430v0nk" gradientUnits="userSpaceOnUse" x1="100.3108" y1="588.4629" x2="259.1766" y2="313.2992" gradientTransform="matrix(1 0 0 1 -16.7197 -327.7031)">
		<stop offset="0" style="stop-color:#000000"></stop>
            <stop offset="0.6111" style="stop-color:#000000;stop-opacity:0"></stop>
	</linearGradient>
        <path d="M267.406,117.277V0C139.148,0,34.808,104.344,34.808,232.595h117.283   C152.092,169.009,203.82,117.277,267.406,117.277z" style="fill: url(&quot;#__id4_sh8430v0nk&quot;);"></path>
</g>
    <g id="__id5_sh8430v0nk">
	<path d="M196.999,272.271c8.558,11.436,3.868,20.797-10.417,20.797H14.695c-14.284,0-18.974-9.361-10.417-20.797   L85.081,164.25c8.558-11.435,22.562-11.435,31.118,0L196.999,272.271z" style="fill: rgb(255, 87, 87);"></path>
</g>
</svg>